HIERARCHY
ROOT SpineBase
{
  OFFSET 0.000000 0.000000 0.000000
  CHANNELS 6 Xposition Yposition Zposition Zrotation Xrotation Yrotation
  JOINT SpineMid
  {
    OFFSET 0.000000 30.495602 0.000000
    CHANNELS 3 Zrotation Xrotation Yrotation
    JOINT SpineShoulder
    {
      OFFSET -0.087398 22.652470 -0.758569
      CHANNELS 3 Zrotation Xrotation Yrotation
      JOINT Neck
      {
        OFFSET -0.066111 7.499658 -0.561254
        CHANNELS 3 Zrotation Xrotation Yrotation
        JOINT Head
        {
          OFFSET 2.480685 14.223557 -3.523705
          CHANNELS 3 Zrotation Xrotation Yrotation
          End Site
          {
            OFFSET 0 0 0
          }
        }
      }
      JOINT ShoulderLeft
      {
        OFFSET -16.364474 -3.270188 -2.419161
        CHANNELS 3 Zrotation Xrotation Yrotation
        JOINT ElbowLeft
        {
          OFFSET -5.081519 -22.260075 3.178120
          CHANNELS 3 Zrotation Xrotation Yrotation
          JOINT WristLeft
          {
            OFFSET -0.755038 -20.081124 -5.063265
            CHANNELS 3 Zrotation Xrotation Yrotation
            JOINT HandLeft
            {
              OFFSET 1.392046 -5.705237 -1.291475
              CHANNELS 3 Zrotation Xrotation Yrotation
              JOINT HandTipLeft
              {
                OFFSET -0.714641 -6.115507 -3.332862
                CHANNELS 3 Zrotation Xrotation Yrotation
                End Site
                {
                  OFFSET 0 0 0
                }
              }
              JOINT ThumbLeft
              {
                OFFSET 2.720727 0.666637 -2.749442
                CHANNELS 3 Zrotation Xrotation Yrotation
                End Site
                {
                  OFFSET 0 0 0
                }
              }
            }
          }
        }
      }
      JOINT ShoulderRight
      {
        OFFSET 16.852478 -5.283614 -0.784132
        CHANNELS 3 Zrotation Xrotation Yrotation
        JOINT ElbowRight
        {
          OFFSET 2.867025 -22.970275 0.587513
          CHANNELS 3 Zrotation Xrotation Yrotation
          JOINT WristRight
          {
            OFFSET 0.348747 -23.140487 -4.438155
            CHANNELS 3 Zrotation Xrotation Yrotation
            JOINT HandRight
            {
              OFFSET -1.015277 -6.341170 -0.322931
              CHANNELS 3 Zrotation Xrotation Yrotation
              JOINT HandTipRight
              {
                OFFSET -0.011201 -6.934008 -0.193508
                CHANNELS 3 Zrotation Xrotation Yrotation
                End Site
                {
                  OFFSET 0 0 0
                }
              }
              JOINT ThumbRight
              {
                OFFSET 2.373716 0.600802 -3.050333
                CHANNELS 3 Zrotation Xrotation Yrotation
                End Site
                {
                  OFFSET 0 0 0
                }
              }
            }
          }
        }
      }
    }
  }
  JOINT HipLeft
  {
    OFFSET -7.842494 1.394745 -3.346178
    CHANNELS 3 Zrotation Xrotation Yrotation
    JOINT KneeLeft
    {
      OFFSET -5.739693 -24.710256 -3.694956
      CHANNELS 3 Zrotation Xrotation Yrotation
      JOINT AnkleLeft
      {
        OFFSET -0.711710 -34.556226 16.397249
        CHANNELS 3 Zrotation Xrotation Yrotation
        JOINT FootLeft
        {
          OFFSET 0.269289 -3.602181 -12.417298
          CHANNELS 3 Zrotation Xrotation Yrotation
          End Site
          {
            OFFSET 0 0 0
          }
        }
      }
    }
  }
  JOINT HipRight
  {
    OFFSET 6.907269 0.320633 -3.187042
    CHANNELS 3 Zrotation Xrotation Yrotation
    JOINT KneeRight
    {
      OFFSET 0.918657 -23.547758 2.783382
      CHANNELS 3 Zrotation Xrotation Yrotation
      JOINT AnkleRight
      {
        OFFSET -2.916387 -31.156613 13.693317
        CHANNELS 3 Zrotation Xrotation Yrotation
        JOINT FootRight
        {
          OFFSET 0.097561 -3.649982 -12.416184
          CHANNELS 3 Zrotation Xrotation Yrotation
          End Site
          {
            OFFSET 0 0 0
          }
        }
      }
    }
  }
}
MOTION
Frames: 10
Frame Time: 0.033333
43.085746 63.529705 312.658414 2.474058 -1.970726 -1.324792 0.123176 0.049805 1.443673 0.064916 -0.004812 0.101516 7.330926 -2.381473 3.154914 0.000000 0.000000 0.000000 -7.964710 -5.078317 0.552996 13.694996 -1.116241 -3.471882 21.291693 43.662403 -8.189971 -36.594031 -44.526693 -14.289243 0.000000 0.000000 0.000000 0.000000 0.000000 0.000000 0.495010 -5.445530 -0.877115 -1.306614 0.246479 0.446462 -4.351013 12.788197 0.212832 4.283029 -3.741955 1.013270 0.000000 0.000000 0.000000 0.000000 0.000000 0.000000 -6.616265 9.804858 0.566547 -8.373126 8.949399 -4.907128 14.686161 -15.432571 7.099576 0.000000 0.000000 0.000000 -1.541211 -2.889724 1.331723 1.590081 1.839528 1.325063 -3.629033 -6.449971 3.219392 0.000000 0.000000 0.000000
42.398888 63.460894 311.413356 3.027303 -1.883662 -2.559865 0.112351 0.062640 2.704287 0.054230 -0.000288 0.123821 6.416659 -2.177345 2.960574 0.000000 0.000000 0.000000 -10.452661 -5.031990 0.156224 17.646958 -1.610829 -3.837211 23.788756 44.504087 -10.625521 -41.213161 -45.748313 -15.652104 0.000000 0.000000 0.000000 0.000000 0.000000 0.000000 0.015283 -5.843454 -0.931706 -0.861388 0.293959 0.351628 -4.221288 12.347403 0.314315 4.454281 -3.735810 0.923015 0.000000 0.000000 0.000000 0.000000 0.000000 0.000000 -7.566465 9.739724 1.822622 -7.809968 7.717260 -4.787000 14.401856 -14.434964 5.743327 0.000000 0.000000 0.000000 -2.501796 -3.306826 2.512170 2.915713 1.003648 1.801489 -4.728043 -17.186453 5.110461 0.000000 0.000000 0.000000
41.624892 63.440744 310.146020 3.689319 -1.914156 -3.677819 0.122483 0.056803 3.856227 0.045437 -0.002762 0.150919 4.809358 -1.493192 2.515211 0.000000 0.000000 0.000000 -11.077061 -4.755357 0.096000 18.832845 -1.947956 -4.094368 25.293485 47.422955 -12.238089 -44.522506 -47.238614 -18.600665 0.000000 0.000000 0.000000 0.000000 0.000000 0.000000 -0.442399 -6.246282 -1.001202 -0.846363 0.705537 0.348089 -3.687157 10.410639 0.505191 5.077591 -5.202933 0.651127 0.000000 0.000000 0.000000 0.000000 0.000000 0.000000 -8.594258 9.833429 2.956081 -7.161967 6.368915 -4.595975 14.020421 -13.452806 4.251126 0.000000 0.000000 0.000000 -3.568175 -3.350488 3.592120 4.330456 -0.427018 2.368308 -5.673678 -20.034232 4.429875 0.000000 0.000000 0.000000
40.784331 63.495739 308.907950 4.352226 -1.943240 -5.010814 0.114080 0.068939 5.222741 0.027769 0.001869 0.176763 3.001582 -0.984774 2.067410 0.000000 0.000000 0.000000 -9.366093 -3.947813 0.307352 16.477433 -2.303758 -3.970435 25.897300 49.243389 -12.578801 -41.689478 -47.798133 -19.360344 0.000000 0.000000 0.000000 0.000000 0.000000 0.000000 -1.143519 -6.640939 -1.082110 -0.410473 1.121163 0.282929 -3.422995 8.614190 0.753957 5.023416 -4.648890 0.304864 0.000000 0.000000 0.000000 0.000000 0.000000 0.000000 -9.569981 9.810406 4.287902 -6.315783 4.735977 -4.252775 13.267084 -12.212564 2.597786 0.000000 0.000000 0.000000 -4.715615 -2.970785 4.896615 5.897471 -2.313347 3.023747 -6.633211 -17.635737 1.781173 0.000000 0.000000 0.000000
39.958796 63.638757 307.797899 5.056985 -2.070881 -6.371541 0.123652 0.061846 6.624290 0.019298 -0.006036 0.205315 1.222749 -0.739583 1.733820 0.000000 0.000000 0.000000 -6.264141 -2.405675 0.584297 12.266869 -3.325886 -3.645322 27.643756 51.522541 -13.613453 -40.143582 -49.032632 -20.711714 0.000000 0.000000 0.000000 0.000000 0.000000 0.000000 -1.973370 -6.935103 -1.175052 0.415860 1.390535 0.120600 -3.828764 7.538786 1.087498 5.522584 -4.294650 0.060002 0.000000 0.000000 0.000000 0.000000 0.000000 0.000000 -10.561224 9.735710 5.669330 -5.483061 3.377684 -3.874457 12.542242 -11.171856 0.948707 0.000000 0.000000 0.000000 -5.896159 -2.173572 6.264932 7.319655 -4.100466 3.653127 -7.023695 -10.689653 -2.438446 0.000000 0.000000 0.000000
39.061850 63.806758 306.762233 5.691327 -2.309840 -7.996378 0.085630 0.073304 8.291227 -0.014658 0.001238 0.226706 -0.715144 -0.096143 1.275168 0.000000 0.000000 0.000000 -2.152865 -0.586682 0.823260 6.909438 -4.983809 -3.339766 27.854482 53.156330 -13.639010 -37.430439 -51.309351 -20.977701 0.000000 0.000000 0.000000 0.000000 0.000000 0.000000 -2.923570 -7.063521 -1.267163 1.736595 1.531909 -0.139281 -4.810651 5.772918 1.666558 6.688276 -2.830376 -0.447029 0.000000 0.000000 0.000000 0.000000 0.000000 0.000000 -11.268250 9.206704 7.367236 -4.712146 2.713770 -3.430997 11.748352 -10.361716 -0.920174 0.000000 0.000000 0.000000 -6.461371 -1.220131 7.984142 7.910443 -5.529349 4.120193 -7.602639 -10.757786 -4.534793 0.000000 0.000000 0.000000
38.192597 64.024792 305.880881 6.208466 -2.595661 -9.779113 0.054493 0.057762 10.115942 -0.035365 -0.015147 0.244874 -2.223203 0.294056 0.991810 0.000000 0.000000 0.000000 2.170112 1.004545 1.009766 1.257524 -6.766831 -3.239037 24.625951 54.980855 -11.346885 -31.707776 -54.596654 -19.958611 0.000000 0.000000 0.000000 0.000000 0.000000 0.000000 -3.719058 -6.955181 -1.331212 3.316225 1.290683 -0.494923 -6.088880 6.466301 1.981850 9.698213 -3.672600 -0.368965 0.000000 0.000000 0.000000 0.000000 0.000000 0.000000 -11.775495 8.341762 9.275681 -4.354098 2.745988 -3.218493 11.465220 -9.856236 -2.677289 0.000000 0.000000 0.000000 -6.530845 -0.178501 9.910052 7.760686 -6.637655 4.386609 -6.787857 -3.742883 -8.816095 0.000000 0.000000 0.000000
37.404873 64.223273 305.181472 6.762803 -3.104764 -11.921110 0.072683 -0.036632 12.322139 -0.056068 -0.051233 0.265616 -4.426226 1.868080 0.428457 0.000000 0.000000 0.000000 5.326037 2.556060 1.005780 -3.626754 -8.350709 -3.148613 25.089885 54.711892 -11.430093 -26.210107 -56.449035 -17.255437 0.000000 0.000000 0.000000 0.000000 0.000000 0.000000 -4.659202 -6.507281 -1.387119 4.583783 1.319689 -0.755563 -6.459849 7.119603 2.050745 10.201776 -2.330010 -0.351971 0.000000 0.000000 0.000000 0.000000 0.000000 0.000000 -12.294028 7.163285 11.656003 -4.137245 3.248310 -3.147532 11.448144 -9.454180 -4.644931 0.000000 0.000000 0.000000 -7.260472 1.621693 12.207495 7.837967 -8.290200 4.674855 -5.081653 4.291320 -13.356240 0.000000 0.000000 0.000000
36.656434 64.411477 304.594317 7.323032 -3.735077 -14.022931 0.088417 -0.091052 14.499274 -0.068079 -0.061027 0.285654 -6.683537 3.420117 -0.052733 0.000000 0.000000 0.000000 6.410333 5.348995 0.267181 -5.595114 -10.935188 -2.702239 26.476943 45.637408 -12.093383 -25.024321 -52.014815 -11.396987 0.000000 0.000000 0.000000 0.000000 0.000000 0.000000 -5.292337 -6.024220 -1.415091 5.383607 1.338819 -0.956098 -5.646515 8.276375 1.797230 10.285605 -2.920712 0.011466 0.000000 0.000000 0.000000 0.000000 0.000000 0.000000 -12.944994 6.225027 14.016168 -4.236648 3.497329 -3.309602 12.004443 -9.014439 -6.692169 0.000000 0.000000 0.000000 -6.629811 2.993941 14.555105 6.543099 -9.042076 4.723166 -4.467913 6.806939 -15.569839 0.000000 0.000000 0.000000
36.029823 64.537661 304.169493 7.864585 -4.511742 -16.184406 0.117745 -0.192067 16.754103 -0.083590 -0.093049 0.305173 -8.727954 5.227813 -0.413193 0.000000 0.000000 0.000000 6.159214 8.816462 -0.823053 -5.427910 -13.604701 -2.077065 27.390233 30.488036 -12.119280 -26.477975 -40.562023 -3.394034 0.000000 0.000000 0.000000 0.000000 0.000000 0.000000 -6.190050 -5.338348 -1.434753 6.390710 1.294575 -1.148333 -4.321341 9.622600 1.380475 9.158454 -3.418683 0.419089 0.000000 0.000000 0.000000 0.000000 0.000000 0.000000 -13.720745 5.449294 16.470246 -4.272146 3.709851 -3.496207 12.609990 -8.692650 -8.682811 0.000000 0.000000 0.000000 -7.000466 4.752444 16.922316 6.041143 -10.134506 4.893059 -4.361289 6.342860 -17.623711 0.000000 0.000000 0.000000
